<?xml version="1.0" encoding="UTF-8"?>
<svg id="Capa_2" data-name="Capa 2" xmlns="http://www.w3.org/2000/svg" viewBox="0 0 2347.85 562.59">
  <defs>
    <style>
      .cls-1 {
        fill: #fff;
      }
    </style>
  </defs>
  <g id="Capa_1-2" data-name="Capa 1">
    <g id="nombre">
      <path class="cls-1" d="m827.02,457.7c-.99,0-1.78-.3-2.35-.92-.57-.61-.86-1.45-.86-2.52v-75.37c0-1.15.29-2.01.86-2.58s1.32-.86,2.24-.86c.99,0,1.75.19,2.29.57.53.38,1.04,1,1.49,1.84l32.81,62.3h-3.21l32.58-62.3c.53-.84,1.04-1.45,1.54-1.84.5-.38,1.25-.57,2.24-.57.91,0,1.66.29,2.24.86s.86,1.44.86,2.58v75.37c0,1.07-.27,1.91-.8,2.52-.53.61-1.34.92-2.41.92s-1.89-.3-2.46-.92c-.58-.61-.86-1.45-.86-2.52v-69.64h2.75l-30.75,58.28c-.38.77-.8,1.34-1.26,1.72-.46.38-1.11.57-1.95.57-.92,0-1.63-.21-2.13-.63-.5-.42-.94-.98-1.32-1.67l-31.1-58.4h2.76v69.75c0,1.07-.28,1.91-.8,2.52-.54.61-1.34.92-2.41.92Zm136.75.23c-7.34,0-13.72-1.68-19.16-5.05-5.43-3.36-9.62-8.14-12.56-14.34-2.94-6.2-4.42-13.54-4.42-22.03,0-6.42.83-12.18,2.47-17.27,1.64-5.09,4.03-9.41,7.17-12.97,3.13-3.55,6.94-6.29,11.41-8.2,4.47-1.91,9.5-2.87,15.08-2.87,7.5,0,13.96,1.66,19.39,4.99,5.44,3.32,9.6,8.07,12.51,14.23,2.91,6.16,4.35,13.48,4.35,21.97,0,6.42-.84,12.2-2.52,17.32-1.69,5.13-4.09,9.48-7.23,13.08-3.14,3.59-6.94,6.35-11.41,8.26-4.48,1.91-9.51,2.87-15.1,2.87Zm0-6.42c6.12,0,11.32-1.38,15.61-4.13,4.28-2.75,7.55-6.73,9.81-11.93,2.26-5.2,3.39-11.51,3.39-18.93,0-11.09-2.51-19.68-7.51-25.76-5.01-6.08-12.11-9.12-21.29-9.12-6.04,0-11.2,1.38-15.48,4.13-4.29,2.75-7.55,6.73-9.81,11.93-2.25,5.2-3.38,11.47-3.38,18.81,0,11.01,2.52,19.6,7.58,25.76,5.04,6.16,12.08,9.24,21.1,9.24Zm67.58,5.51c-1.08,0-1.94-.33-2.59-.98s-.98-1.55-.98-2.7v-74.11c0-1.22.31-2.14.92-2.75.61-.61,1.45-.92,2.53-.92,1.14,0,2.02.31,2.64.92.61.61.91,1.53.91,2.75v71.47h39.47c1.15,0,2.01.27,2.59.8.57.53.85,1.3.85,2.29,0,1.07-.28,1.87-.85,2.41-.58.54-1.44.8-2.59.8h-42.9Zm71.58,0c-1.22,0-2.18-.34-2.87-1.03-.69-.69-1.03-1.68-1.03-2.98v-72.85c0-1.3.34-2.29,1.03-2.98.69-.69,1.65-1.03,2.87-1.03h22.15c12.84,0,22.77,3.44,29.77,10.32,7,6.89,10.5,16.91,10.5,30.06,0,6.58-.9,12.39-2.7,17.44-1.8,5.05-4.41,9.28-7.86,12.68-3.43,3.4-7.64,5.98-12.62,7.74-4.98,1.76-10.67,2.64-17.09,2.64h-22.15Zm3.1-6.2h18.47c5.58,0,10.46-.73,14.63-2.18,4.17-1.45,7.63-3.59,10.38-6.42,2.75-2.83,4.82-6.4,6.2-10.73,1.37-4.32,2.06-9.31,2.06-14.97,0-11.39-2.77-19.94-8.31-25.64-5.55-5.7-13.87-8.54-24.95-8.54h-18.47v68.49Zm90.86,6.2c-1.22,0-2.18-.34-2.87-1.03-.69-.69-1.03-1.68-1.03-2.98v-72.85c0-1.3.34-2.29,1.03-2.98.69-.69,1.65-1.03,2.87-1.03h43.36c1.07,0,1.88.27,2.41.8.54.53.8,1.26.8,2.18,0,1.07-.26,1.86-.8,2.35-.53.5-1.34.75-2.41.75h-40.38v30.75h38.09c1.07,0,1.88.25,2.41.75.53.5.8,1.24.8,2.24s-.27,1.76-.8,2.29c-.53.54-1.34.8-2.41.8h-38.09v31.9h40.38c1.07,0,1.88.25,2.41.75.54.5.8,1.24.8,2.24s-.26,1.76-.8,2.29c-.53.54-1.34.8-2.41.8h-43.36Zm67.46.69c-.99,0-1.78-.21-2.35-.63-.58-.42-.88-1.02-.92-1.78-.04-.76.13-1.61.51-2.52l32.24-74.11c.53-1.15,1.18-1.97,1.95-2.47.76-.5,1.53-.75,2.29-.75.92,0,1.74.25,2.47.75.72.5,1.32,1.32,1.78,2.47l32.24,74.11c.45.92.66,1.76.63,2.52-.04.76-.31,1.36-.8,1.78-.5.42-1.24.63-2.24.63-1.07,0-1.94-.28-2.59-.86-.65-.57-1.2-1.36-1.67-2.35l-8.83-20.76,3.78,1.72h-49.68l3.9-1.72-8.83,20.76c-.47,1.15-1.02,1.97-1.67,2.47-.66.5-1.4.75-2.24.75Zm33.61-72.85l-19.5,45.89-2.64-1.37h44.39l-2.4,1.37-19.62-45.89h-.23Zm65.28,72.85c-1.07,0-1.89-.3-2.46-.92-.58-.61-.86-1.49-.86-2.64v-75.03c0-1.22.26-2.14.8-2.75.53-.61,1.26-.92,2.18-.92.99,0,1.72.16,2.18.46.46.31.96.88,1.49,1.72l52.78,71.01h-2.64v-69.75c0-1.15.29-2.01.86-2.58.57-.57,1.4-.86,2.47-.86.99,0,1.78.29,2.35.86.57.57.85,1.44.85,2.58v75.26c0,1.15-.25,2.03-.75,2.64-.5.61-1.21.92-2.13.92-.83,0-1.53-.17-2.06-.52-.54-.34-1.11-.9-1.72-1.66l-52.66-71.02h2.52v69.64c0,1.15-.28,2.03-.85,2.64-.58.61-1.36.92-2.35.92Zm94.87-.69c-1.22,0-2.18-.34-2.86-1.03-.69-.69-1.04-1.68-1.04-2.98v-72.85c0-1.3.35-2.29,1.04-2.98.69-.69,1.64-1.03,2.86-1.03h22.15c12.85,0,22.77,3.44,29.77,10.32,7,6.89,10.49,16.91,10.49,30.06,0,6.58-.9,12.39-2.7,17.44-1.8,5.05-4.41,9.28-7.85,12.68-3.44,3.4-7.65,5.98-12.63,7.74-4.97,1.76-10.67,2.64-17.09,2.64h-22.15Zm3.1-6.2h18.47c5.58,0,10.46-.73,14.63-2.18,4.17-1.45,7.63-3.59,10.39-6.42,2.75-2.83,4.81-6.4,6.2-10.73,1.37-4.32,2.06-9.31,2.06-14.97,0-11.39-2.77-19.94-8.31-25.64-5.55-5.7-13.87-8.54-24.96-8.54h-18.47v68.49Zm119.89,7.11c-7.34,0-13.73-1.68-19.16-5.05-5.44-3.36-9.62-8.14-12.57-14.34-2.94-6.2-4.41-13.54-4.41-22.03,0-6.42.82-12.18,2.47-17.27,1.64-5.09,4.03-9.41,7.17-12.97,3.13-3.55,6.94-6.29,11.41-8.2,4.48-1.91,9.51-2.87,15.09-2.87,7.5,0,13.96,1.66,19.39,4.99,5.43,3.32,9.59,8.07,12.5,14.23,2.91,6.16,4.36,13.48,4.36,21.97,0,6.42-.84,12.2-2.52,17.32-1.69,5.13-4.1,9.48-7.23,13.08-3.13,3.59-6.94,6.35-11.41,8.26-4.47,1.91-9.51,2.87-15.09,2.87Zm0-6.42c6.12,0,11.32-1.38,15.61-4.13,4.28-2.75,7.55-6.73,9.81-11.93,2.26-5.2,3.38-11.51,3.38-18.93,0-11.09-2.51-19.68-7.51-25.76-5.01-6.08-12.11-9.12-21.28-9.12-6.04,0-11.21,1.38-15.49,4.13s-7.55,6.73-9.81,11.93c-2.26,5.2-3.38,11.47-3.38,18.81,0,11.01,2.52,19.6,7.57,25.76,5.05,6.16,12.08,9.24,21.11,9.24Zm106.69,5.51c-1.22,0-2.18-.34-2.86-1.03-.69-.69-1.03-1.68-1.03-2.98v-72.85c0-1.3.34-2.29,1.03-2.98.69-.69,1.64-1.03,2.86-1.03h26.97c5.58,0,10.28.82,14.11,2.47,3.82,1.65,6.77,4.04,8.83,7.17,2.07,3.14,3.1,7,3.1,11.59,0,5.05-1.51,9.25-4.53,12.62-3.02,3.37-7.09,5.59-12.22,6.66v-1.61c5.74.61,10.27,2.66,13.6,6.14,3.32,3.48,4.99,8.09,4.99,13.82,0,7.19-2.29,12.66-6.88,16.41-4.59,3.75-11.09,5.62-19.5,5.62h-28.46Zm2.99-43.94h23.18c6.42,0,11.32-1.32,14.68-3.96,3.37-2.64,5.05-6.48,5.05-11.53s-1.68-8.89-5.05-11.53c-3.36-2.64-8.26-3.96-14.68-3.96h-23.18v30.98Zm0,37.98h24.89c6.66,0,11.62-1.32,14.91-3.96,3.29-2.64,4.94-6.64,4.94-11.99s-1.65-9.56-4.94-12.16c-3.29-2.6-8.26-3.9-14.91-3.9h-24.89v32.01Zm83.86,5.97c-1.22,0-2.18-.34-2.86-1.03-.69-.69-1.03-1.68-1.03-2.98v-72.85c0-1.3.34-2.29,1.03-2.98.69-.69,1.64-1.03,2.86-1.03h43.37c1.07,0,1.87.27,2.41.8.53.53.8,1.26.8,2.18,0,1.07-.27,1.86-.8,2.35-.54.5-1.34.75-2.41.75h-40.38v30.75h38.09c1.07,0,1.87.25,2.41.75.53.5.8,1.24.8,2.24s-.27,1.76-.8,2.29c-.54.54-1.34.8-2.41.8h-38.09v31.9h40.38c1.07,0,1.87.25,2.41.75.53.5.8,1.24.8,2.24s-.27,1.76-.8,2.29c-.54.54-1.34.8-2.41.8h-43.37Zm75.61,0c-1.07,0-1.93-.33-2.58-.98-.65-.65-.97-1.55-.97-2.7v-74.11c0-1.22.3-2.14.91-2.75.61-.61,1.45-.92,2.53-.92,1.15,0,2.02.31,2.64.92.61.61.91,1.53.91,2.75v71.47h39.47c1.15,0,2.01.27,2.58.8.58.53.86,1.3.86,2.29,0,1.07-.28,1.87-.86,2.41-.57.54-1.43.8-2.58.8h-42.91Zm71.24,0c-1.07,0-1.93-.33-2.58-.98-.65-.65-.97-1.55-.97-2.7v-74.11c0-1.22.3-2.14.91-2.75.61-.61,1.45-.92,2.53-.92,1.15,0,2.02.31,2.64.92.61.61.91,1.53.91,2.75v71.47h39.47c1.15,0,2.01.27,2.58.8.58.53.86,1.3.86,2.29,0,1.07-.28,1.87-.86,2.41-.57.54-1.43.8-2.58.8h-42.91Zm71.59,0c-1.22,0-2.18-.34-2.86-1.03-.69-.69-1.03-1.68-1.03-2.98v-72.85c0-1.3.34-2.29,1.03-2.98.69-.69,1.64-1.03,2.86-1.03h43.37c1.07,0,1.87.27,2.41.8.53.53.8,1.26.8,2.18,0,1.07-.27,1.86-.8,2.35-.54.5-1.34.75-2.41.75h-40.38v30.75h38.09c1.07,0,1.87.25,2.41.75.53.5.8,1.24.8,2.24s-.27,1.76-.8,2.29c-.54.54-1.34.8-2.41.8h-38.09v31.9h40.38c1.07,0,1.87.25,2.41.75.53.5.8,1.24.8,2.24s-.27,1.76-.8,2.29c-.54.54-1.34.8-2.41.8h-43.37Zm70.33,0c-.84,0-1.57-.19-2.18-.57-.61-.38-1.04-.9-1.26-1.55s-.25-1.4-.06-2.24c.19-.84.64-1.76,1.32-2.75l49.56-70.67v3.21h-47.84c-1.15,0-2.02-.28-2.64-.86-.61-.57-.92-1.36-.92-2.35s.31-1.76.92-2.29c.61-.54,1.49-.8,2.64-.8h50.82c.92,0,1.68.19,2.29.57s1.04.9,1.26,1.55c.23.65.23,1.4,0,2.24-.23.84-.65,1.76-1.26,2.75l-49.56,70.56v-3.1h49.45c1.15,0,2.02.27,2.64.8.61.53.91,1.3.91,2.29,0,1.07-.3,1.87-.91,2.41-.61.54-1.49.8-2.64.8h-52.55Zm74.34.69c-.99,0-1.78-.21-2.35-.63-.57-.42-.88-1.02-.91-1.78-.04-.76.13-1.61.51-2.52l32.24-74.11c.53-1.15,1.18-1.97,1.94-2.47.77-.5,1.53-.75,2.3-.75.91,0,1.73.25,2.46.75.72.5,1.32,1.32,1.78,2.47l32.24,74.11c.46.92.66,1.76.63,2.52-.04.76-.31,1.36-.8,1.78-.5.42-1.24.63-2.24.63-1.07,0-1.93-.28-2.58-.86s-1.21-1.36-1.67-2.35l-8.83-20.76,3.78,1.72h-49.68l3.9-1.72-8.83,20.76c-.46,1.15-1.02,1.97-1.67,2.47s-1.4.75-2.24.75Zm33.62-72.85l-19.51,45.89-2.64-1.37h44.4l-2.41,1.37-19.62-45.89h-.23Z"/>
      <path class="cls-1" d="m705.33,320.66c-16.37-9.77-28.84-23.12-37.41-40.04-8.56-16.91-12.84-36.03-12.84-57.34s4.72-42.02,14.16-60.14c9.45-18.13,22.46-32.4,39.05-42.84,16.59-10.43,35.09-15.65,55.53-15.65,19.33,0,35.47,2.47,48.44,7.41,12.95,4.94,22.85,11.37,29.66,19.28,3.95,5.06,6.37,11.32,7.25,18.78.88,7.47,1.32,17.91,1.32,31.3h-9.88c-4.18-20.21-11.87-35.59-23.07-46.14-11.2-10.54-25.81-15.81-43.82-15.81-22.41,0-40.1,7.91-53.06,23.72-12.96,15.82-19.44,42.51-19.44,80.08,0,27.9,5.93,51.08,17.79,69.53,11.86,18.45,30.1,27.68,54.7,27.68,15.37,0,29.49-4.06,42.35-12.19,12.84-8.12,23.23-19.77,31.14-34.93l11.53,8.9c-10.54,18.46-23.29,31.91-38.23,40.37-14.93,8.46-33.83,12.69-56.68,12.69s-42.13-4.89-58.49-14.66Zm225.39-.49c-16.59-10.1-29.39-23.94-38.39-41.52-9.02-17.57-13.51-37.12-13.51-58.66s4.49-41.08,13.51-58.66c9-17.58,21.8-31.41,38.39-41.52,16.59-10.1,35.54-15.16,56.84-15.16s40.21,5.06,56.68,15.16c16.48,10.11,29.21,23.95,38.23,41.52,9,17.58,13.51,37.13,13.51,58.66s-4.51,41.08-13.51,58.66c-9.02,17.58-21.75,31.42-38.23,41.52-16.48,10.1-35.38,15.16-56.68,15.16s-40.26-5.06-56.84-15.16Zm103.31-25.87c10.98-17.47,16.48-42.23,16.48-74.31s-5.49-56.84-16.48-74.31c-10.99-17.47-26.48-26.2-46.47-26.2s-35.42,8.73-46.29,26.2c-10.88,17.47-16.32,42.23-16.32,74.31s5.44,56.84,16.32,74.31c10.87,17.47,26.3,26.2,46.29,26.2s35.48-8.73,46.47-26.2Zm302.01,32.62c-10.44-11.09-15.66-29.16-15.66-54.21v-116.65l-72.16,172.68h-10.88l-88.31-179.27v179.27h-16.48V111.25h40.21l79.75,161.8,67.56-161.8h43.17v161.47c0,20.66,1.75,35.81,5.28,45.48,3.51,9.67,9.77,15.38,18.78,17.14v8.24c-23.72,0-40.81-5.55-51.24-16.64Zm89.13-172.84c0-11.2-1.53-19.49-4.61-24.88-3.08-5.38-9.23-8.07-18.45-8.07h-3.3v-9.89h138.08c18.67,0,28.01,8.79,28.01,26.36v28.01h-9.89c0-13.84-3.46-23.89-10.38-30.15-6.92-6.26-17.19-9.39-30.81-9.39h-45.8v84.03h72.49v14.83h-72.49v103.8h-42.84v-174.65Zm290.98,167.24c-11.2-5.82-20.32-17.18-27.35-34.11l-7.58-18.45h-87.66l-27.02,59.97h-17.13l97.21-217.49h14.82l73.82,175.97c8.35,20.43,19.77,31.42,34.27,32.96v8.24c-3.95,1.1-9.23,1.65-15.82,1.65-13.84,0-26.36-2.91-37.57-8.73Zm-115.66-67.39h74.47l-36.25-86.01-38.22,86.01Zm216.82-127.86h-23.4c-12.3,0-21.69,3.08-28.17,9.22-6.48,6.16-9.72,16.26-9.72,30.32h-9.89v-28.01c0-17.57,9.33-26.36,28.01-26.36h154.88v14.83h-68.87v202.66h-42.84V126.07Zm144.33,28.01c0-11.2-1.54-19.49-4.62-24.88-3.08-5.38-9.23-8.07-18.45-8.07h-3.3v-9.89h145.32c18.68,0,28.01,8.79,28.01,26.36v28.01h-9.89c0-13.62-3.46-23.61-10.38-29.99-6.92-6.37-17.19-9.56-30.81-9.56h-53.05v82.38h85.67v14.83h-85.67v90.62h56.35c12.52,0,22.96-2.8,31.31-8.4,8.34-5.6,15.26-15.33,20.76-29.16l8.9,3.3-9.56,26.03c-2.86,7.91-6.26,13.73-10.21,17.47-3.95,3.74-10.1,5.6-18.46,5.6h-121.92v-174.65Zm253.08,72.17l-46.8-72.17c-5.71-9.23-12.74-17.35-21.09-24.39-8.35-7.03-16.04-10.98-23.07-11.86v-6.59h36.25c11.2,0,21.36,3.51,30.48,10.54,9.11,7.03,16.86,15.6,23.23,25.7l28.67,44.16,63.6-80.4h21.42l-75.47,95.23,51.74,79.42c5.71,9.22,12.74,17.36,21.09,24.39,8.34,7.03,16.03,10.99,23.07,11.86v6.59h-36.25c-11.21,0-21.37-3.51-30.48-10.55-9.12-7.03-16.86-15.6-23.23-25.7l-33.28-51.41-69.54,87.65h-21.42l81.06-102.48Z"/>
    </g>
    <g>
      <path class="cls-1" d="m334.13,198.21c-1.54-7.01-3.54-13.92-5.98-20.7-.57-1.7-3.37-6.94-5.11-11.45-.1-.3-.23-.67-.37-1.04-5.44,1.07-11.59,2.94-18.7,5.21l-3.71,1.17-1.5.47c-3.67,1.17-7.21,2.5-10.45,3.94l-3.44,1.54c-6.91,3.21-12.52,6.61-16.46,9.22,4.91,5.78,13.56,17.33,18.06,33.15,2.84,9.92,3.27,18.73,3.34,21.07.17,4.77-.07,8.88-.4,12.02-14.49-.77-27.35,7.61-31.35,19.73-5.21,15.73,5.81,33.96,19.1,36.69,5.14,1.07,9.98-.33,13.62-2.07-1.07,1.04-4.11,3.77-8.92,4.47-3.37.5-6.11-.23-7.51-.77,2.94,14.29,4.84,25.38,5.61,31.22.67,5.18,1.03,9.68,1.03,9.68.17,2.2.3,4.54.37,7.05,8.41,4.07,20.1,8.25,33.62,9.01,2.97-8.85,5.81-18.03,8.35-27.21v-.03c.53-1.94,1.03-3.81,1.57-5.74v-.03c.57-2.14,1.14-4.21,1.64-6.34,3.87-15.19,6.91-30.15,8.71-43.51.3-2.17.63-5.31.87-8.91.03-.17.07-.33.07-.53l.33-4.77c.07-.94.13-1.87.2-2.84.8-13.16,1.37-27.78,1.37-27.78.6-14.06-.9-28.18-3.97-41.9Zm-35.49,161.23c17.26-58.83,17.2-122.27-.63-180.9,22.94,57.16,23.04,123.51.63,180.9Zm-17.08,3.6c.06,2.1.06,3.97.03,5.78,7.36,3.04,17.96,6.43,30.49,7.36.55-1.55,1.1-3.1,1.65-4.65-12.73-.9-23.81-4.65-32.17-8.5Zm36.53-237.61c-.42-.45-7.75,2.23-8.56,2.49-14.05,4.72-29.01,6.36-43.7,5.01,2.1,3.59,4.62,9.5,4.33,15.86-.36,8.27-5.14,15.57-14.28,21.74.29.32.58.68.87,1,3.33,3.84,6.46,7.82,9.46,11.92,4.33-2.84,10.72-6.72,18.61-10.24,0-.03.03-.03.06-.03.13-.03.26-.1.39-.16,3.81-1.71,7.95-3.33,12.37-4.75l1.74-.55c3-.87,7.07-2.1,11.92-3.71,7.75-2.55,9.24-3.36,10.63-4.62,4.55-4.1,5.27-10.27,5.33-12.69.26-8.53-3.75-15.15-9.17-21.25Zm69.61,208.15c-6.07,9.3-15.21,19.74-28.55,27.46,1.2,1.23,2.36,2.49,3.52,3.71,13.05-7.49,22.32-17.31,28.72-26.26-1.2-1.62-2.42-3.26-3.68-4.91Zm-2.45-3.13c-5.91,9.34-15.08,20.06-28.78,27.75-9.11-9.56-18.19-18.57-27.13-27.1,3.17-9.72,5.17-18.06,6.46-24.55,1.97-9.63,2.81-17.73,3.36-21.45.19-1.42.39-3.2.58-5.27,2.36,2.45,4.78,4.88,7.27,7.4,1.26,1.26,2.55,2.55,3.84,3.88,2.97,3.04,6.01,6.27,9.14,9.79,9.98,11.27,18.22,20.71,25.26,29.56Zm-151.58-168.69c.55,1.97,5.56,20.12-4.65,34.43-8.59,12.05-22,13.08-23.23,13.15-19.48,1.16-26.07-19.58-46.16-24.26-9.69-2.26-24.06-1.16-44.25,14.41,7.24-25.36,17.41-34.14,25.26-37.5,15.57-6.72,29.27,4.72,42.77-4.13,9.46-6.2,13.08-18.61,14.63-27.42-5.75-3.78-11.5-7.56-17.25-11.34-.36,8.08-2.03,18.61-8.85,23.42-5.98,4.2-11.82,1.2-22.03,2.45,0,0-13.92,1.74-27.65,13.02-15.93,13.08-21.9,40.89-17.73,70,25.58-27.52,41.96-30.17,52.2-27.39,14.89,4.04,18.12,19.8,36.82,23.68,1.68.36,22.71,4.33,35.95-10.89,10.79-12.4,12.5-33.17,4.17-51.62Zm0-92.33c-7.91-2.39-16.31-2.52-24.1.36-11.18,4.1-18.96,12.6-22.68,23.39,6.72,3.81,13.34,7.72,19.83,11.63.36-.97.74-1.97,1.16-2.91,1.87-4.1,5.07-7.82,8.27-10.89,7.04-6.72,16.73-8.27,25.91-4.65,1.26.52,2.52,1.1,3.71,1.74,9.59,5.27,17.7,18.61,18.48,30.75.06.65-.42,1.23-1.07,1.32l-10.82,1.62c2.1,2.33,5.07,3.59,8.17,3.59.39,0,.74,0,1.13-.03l6.72-.68c.58-.06,1.03-.52,1.13-1.1.23-1.52.48-2.81.39-4.07-1.71-22.61-12.63-42.96-36.24-50.07Zm51.97-38.96c-11.93,3.42-14.26,7.13-16.04,29.03-.04.62-.91.62-.98,0-1.78-21.9-4.11-25.61-16.04-29.03-.47-.15-.47-.84,0-.98,11.93-3.42,14.26-7.13,16.04-29.03.07-.62.95-.62.98,0,1.78,21.9,4.11,25.61,16.04,29.03.47.15.47.84,0,.98Z"/>
      <g>
        <path class="cls-1" d="m385.98,86.32c-15.46-17.83-42.07-40.7-89.52-56.23,28.01,4.24,88.68,17.46,144.47,65.44,14.92,12.82,56.46,51.32,79.23,111.92-12.99,3.97-33.22,7.98-52.79,0-41.97-17.16-38.83-72.15-81.4-121.13Z"/>
        <path class="cls-1" d="m296.46,562.59c47.45-15.53,74.06-38.43,89.52-56.23,42.57-49.01,39.43-104.01,81.4-121.13,19.57-8.01,39.8-4.01,52.79,0-22.77,60.57-64.31,99.06-79.23,111.89-55.79,47.98-116.46,61.2-144.47,65.48h0Z"/>
        <path class="cls-1" d="m242.17,562.58C106.33,549.9,0,435.45,0,296.15c0-86.97,41.45-164.26,105.68-213.1l2.68.84c2.03.65,4.03,1.32,6,2.06,6.9,2.52,14.19,5.84,22.81,10.45-16.13,16.77-30.07,35.61-41.36,56.13-26.87,41.42-42.42,90.68-42.42,143.62,0,40.52,9.13,78.94,25.48,113.29,29.03,71.97,88.87,128.36,163.3,153.13Z"/>
        <path class="cls-1" d="m157.3,75.11c-8.97-4.26-17.13-7.55-24.84-10.03,32-18.77,68.23-31.07,106.94-35.1-29.55,10.65-56.68,26.32-80.29,46-.61-.29-1.19-.58-1.81-.87Z"/>
      </g>
      <g>
        <path class="cls-1" d="m407.97,365.91c-4.44-8.91-9.25-16.79-14.83-24.61-6.48,8.85-15.69,18.43-28.38,25.91,6.28,6.71,12.25,13.39,18.03,20-1.17.27-2.4.57-3.77.9-4.77,1.14-10.72,2.77-17.33,5.04-10.72,3.67-21.6,7.41-33.42,15.39-7.85,5.24-19.7,13.26-28.21,28.61-6.28,11.32-8.18,22.1-8.78,28.88.53-.53,1.1-1.14,1.67-1.67,5.51-5.41,13.19-12.25,23.17-19,14.22-9.58,26.91-14.86,37.03-19.07,13.36-5.58,18.9-6.54,39.77-15.26,12.75-5.34,18.83-8.58,21.7-13.36,2.97-5.04,2.9-12.82-6.64-31.79Z"/>
        <path class="cls-1" d="m281.31,372.39c-.13,1.64-.37,3.21-.7,4.81-2.74,13.96-7.81,22.4-14.39,31.95-12.42,18-21.54,37.36-23.17,59.47-.73,9.68-.47,16.99.07,22.77.43,4.71,1.87,18.1,15.73,57.93,2.3,6.61,3.98,10,5.18,13.27-1.9-13.29-1.61-22.36-1.21-30.14.5-8.98,1.64-15.93,2.91-23.77,1.9-12.15,4.24-21.84,5.88-28.01,6.01-22.8,12.39-35.19,29.55-77.26,4.27-10.52,7.65-19,9.62-23.94-11.89-1.04-22.07-4.14-29.45-7.08Z"/>
        <path class="cls-1" d="m261.14,132.27c-13.86-1.87-27.38-6.48-39.53-13.66-3.91-2.3-7.78-4.67-11.69-6.98-1.44-.83-2.84-1.7-4.21-2.5-6.61-3.97-13.19-7.88-19.83-11.65l-4.27-2.44c-6.38-3.61-12.92-7.08-19.5-10.38-2.54-1.27-5.04-2.5-7.58-3.71-8.08-3.84-16.23-7.25-24.57-9.92-10.32-3.37-21-5.71-32.29-6.41-5.74-.4-11.42-.33-16.96.5-5.08.7-10.15,2.07-14.96,4.44-.2.1-.43.2-.64.3.13,0,.23-.03.37-.03,16.13-1.94,29.22,3.01,44.84,7.91,2.1.67,4.21,1.37,6.28,2.14,8.98,3.31,17.53,7.51,25.91,12.05,4.07,2.17,8.11,4.44,12.15,6.71,8.41,4.77,17,9.45,25.31,14.42.27.17.43.3.67.43,1.4.83,2.77,1.64,4.14,2.5,6.11,3.67,12.22,7.38,18.23,11.19,1.44.9,2.91,1.8,4.31,2.77,12.99,8.41,25.54,17.43,36.83,28.11,2.27,2.1,4.44,4.31,6.58,6.51.93,1,1.9,2,2.84,3.04l.1-.07c8.28-5.54,12.65-11.95,12.96-19,.33-7.45-3.97-14.46-5.48-16.29Z"/>
      </g>
    </g>
  </g>
</svg>